# xmcd
# Track frame offsets:
# 150
# 10441
# 20639
# 33865
# 45561
# 62324
# 79124
# 92628
# 112707
# 121694
# 135265
# 151067
# 161668
# 176238
#
# Disc length: 2566 seconds
# Revision: 0
# Processed by: cddbd v1.4PL0 Copyright (c) Steve Scherf et al.
# Submitted via: VisiTrax 2.9.5.180 - For more info visit www.synapsa.com
#
DISCID=990a040e
DTITLE=The Desert Sons - In The Heart Of The West
DYEAR=1996
DGENRE=
TTITLE0=The West Is In My Soul
TTITLE1=When The Bloom Is On The Sage
TTITLE2=Ride The Wind
TTITLE3=In The Valley
TTITLE4=The Gift
TTITLE5=The Old Borunda Cafe
TTITLE6=Arizona Mountain Home
TTITLE7=Dream Of The Prairie
TTITLE8=One Hundred And Sixty Acres
TTITLE9=Fifty Years Ago
TTITLE10=The Cowhand Life
TTITLE11=The Call Of The Wild
TTITLE12=The Chant Of The Wanderer
TTITLE13=Ghost Riders In the Sky
EXTD=
EXTT0=
EXTT1=
EXTT2=
EXTT3=
EXTT4=
EXTT5=
EXTT6=
EXTT7=
EXTT8=
EXTT9=
EXTT10=
EXTT11=
EXTT12=
EXTT13=
PLAYORDER=
